<?xml version="1.0" standalone="no"?>
<!DOCTYPE svg PUBLIC "-//W3C//DTD SVG 1.1//EN" "http://www.w3.org/Graphics/SVG/1.1/DTD/svg11.dtd" >
<svg xmlns="http://www.w3.org/2000/svg">
<metadata></metadata>
<defs>
<font id="opticregular" horiz-adv-x="2350" >
<font-face units-per-em="2048" ascent="1638" descent="-410" />
<missing-glyph horiz-adv-x="2050" />
<glyph horiz-adv-x="2048" />
<glyph horiz-adv-x="2048" />
<glyph unicode="&#xd;" horiz-adv-x="200" />
<glyph unicode=" "  horiz-adv-x="2050" />
<glyph unicode="&#x09;" horiz-adv-x="2050" />
<glyph unicode="&#xa0;" horiz-adv-x="2050" />
<glyph unicode="!" horiz-adv-x="550" d="M0 0v250h350v-250h-350zM0 500v750h350v-750h-350z" />
<glyph unicode="&#x22;" horiz-adv-x="1100" d="M0 1000v400h350v-100q0 -300 -350 -300zM550 1000v400h350v-100q0 -300 -350 -300z" />
<glyph unicode="#" horiz-adv-x="1650" d="M0 300v250h248v247h-248v265h248l2 138h350v-150h250v150h350v-150h250v-250h-250v-250h250v-250h-250v-150h-350v150h-250v-150h-350l-2 150h-248zM600 550h250v250h-250v-250z" />
<glyph unicode="$" horiz-adv-x="2050" d="M0 150v250h500v150h-500q0 435 500 555v145h350v-102q49 2 100 2h50v100h350v-100h500v-250h-500v-100h500q0 -472 -500 -601v-199h-350v152q-49 -2 -100 -2h-50v-150h-350v150h-500zM425 800h75v45q-44 -19 -75 -45zM850 400h150v150h-150v-150zM850 800h150v100h-150 v-100zM1350 482q44 29 75 68h-75v-68z" />
<glyph unicode="%" horiz-adv-x="2050" d="M0 0l722 623q-144 -23 -322 -23h-400q0 650 943 650h407q0 -47 -5 -90l105 90h400l-721 -622q141 22 314 22h407q0 -650 -950 -650h-400q0 47 5 90l-105 -90h-400zM451 850h49q306 0 425 150h-75q-277 0 -399 -150zM951 250h49q306 0 425 150h-75q-277 0 -399 -150z" />
<glyph unicode="&#x26;" d="M0 0q0 444 333 625q-333 181 -333 625h1700q0 -317 -170 -500h270v-250h-507q103 -250 457 -250h400v-250h-2150zM393 250h677q-96 104 -138 250h-82q-354 0 -457 -250zM393 1000q103 -250 457 -250t457 250h-914z" />
<glyph unicode="'" horiz-adv-x="550" d="M0 1000v400h350v-100q0 -300 -350 -300z" />
<glyph unicode="(" horiz-adv-x="1050" d="M0 500v250q0 750 850 750v-250q-500 0 -500 -500v-250q0 -500 500 -500v-250q-850 0 -850 750z" />
<glyph unicode=")" horiz-adv-x="1050" d="M0 0q500 0 500 500v250q0 500 -500 500v250q850 0 850 -750v-250q0 -750 -850 -750v250z" />
<glyph unicode="*" horiz-adv-x="1250" d="M0 1250l240 150l-240 150l250 150l100 -60v110h350v-110l100 60l250 -150l-224 -160l224 -140l-250 -150l-100 60v-110h-350v110l-100 -60z" />
<glyph unicode="+" horiz-adv-x="1750" d="M0 500v250h600v250h350v-250h600v-250h-600v-250h-350v250h-600z" />
<glyph unicode="," horiz-adv-x="550" d="M0 -150v400h350v-100q0 -300 -350 -300z" />
<glyph unicode="-" horiz-adv-x="1750" d="M0 500v250h1550v-250h-1550z" />
<glyph unicode="." horiz-adv-x="550" d="M0 0v250h350v-250h-350z" />
<glyph unicode="/" horiz-adv-x="2050" d="M0 0l1450 1250h400l-1450 -1250h-400z" />
<glyph unicode="0" d="M0 0v100q0 1150 1250 1150h900v-100q0 -1150 -1250 -1150h-900zM350 250h700q750 50 750 750h-700q-750 -50 -750 -750zM900 500v250h350v-250h-350z" />
<glyph unicode="1" horiz-adv-x="700" d="M0 1000v250h500v-1250h-350v1000h-150z" />
<glyph unicode="2" d="M-50 0q0 750 950 750h857q-103 250 -457 250h-1300v250h1200q950 0 950 -750h-1350q-354 0 -457 -250h1807v-250h-2200z" />
<glyph unicode="3" d="M0 0v250h1757q-103 250 -457 250h-750v250h750q354 0 457 250h-1757v250h2150q0 -444 -333 -625q333 -181 333 -625h-2150z" />
<glyph unicode="4" d="M0 500l150 750h350l-100 -500h1400v500h350v-1250h-350v500h-1800zM850 1300v150h450v-150h-450z" />
<glyph unicode="5" d="M0 0v250h1300q354 0 457 250h-1757l200 750h1950v-250h-1700l-50 -250h1750q0 -750 -950 -750h-1200z" />
<glyph unicode="6" d="M0 0v500q0 750 950 750h1200v-250h-1300q-500 0 -500 -500v-250h950q354 0 457 250h-1207v250h1600q0 -750 -950 -750h-1200z" />
<glyph unicode="7" d="M0 1000v250h2150v-250q-1200 -300 -1200 -735v-265h-354v269q4 481 704 731h-1300z" />
<glyph unicode="8" d="M0 0q0 444 333 625q-333 181 -333 625h2150q0 -444 -333 -625q333 -181 333 -625h-2150zM393 250h1364q-103 250 -457 250h-450q-354 0 -457 -250zM393 1000q103 -250 457 -250h450q354 0 457 250h-1364z" />
<glyph unicode="9" d="M0 0v250h1300q500 0 500 500v250h-950q-354 0 -457 -250h1207v-250h-1600q0 750 950 750h1200v-500q0 -750 -950 -750h-1200z" />
<glyph unicode=":" horiz-adv-x="550" d="M0 0v250h350v-250h-350zM0 500v250h350v-250h-350z" />
<glyph unicode=";" horiz-adv-x="550" d="M0 -150v400h350v-100q0 -300 -350 -300zM0 500v250h350v-250h-350z" />
<glyph unicode="&#x3c;" horiz-adv-x="1800" d="M0 250q0 750 950 750h650v-250h-750q-354 0 -457 -250h1207v-250h-1600z" />
<glyph unicode="=" horiz-adv-x="1750" d="M0 250v250h1550v-250h-1550zM0 750v250h1550v-250h-1550z" />
<glyph unicode="&#x3e;" horiz-adv-x="1800" d="M0 250v250h1207q-103 250 -457 250h-750v250h650q950 0 950 -750h-1600z" />
<glyph unicode="?" d="M0 1000v250h1200q950 0 950 -750h-1550v250h1157q-103 250 -457 250h-1300zM600 0v250h350v-250h-350z" />
<glyph unicode="@" d="M0 0v100q0 1150 1250 1150h900v-150q0 -750 -950 -750h-650q0 600 950 600h286q5 24 8 50h-694q-750 -50 -750 -750h1800v-250h-2150zM1008 600h292q224 0 347 100h-247q-267 0 -392 -100z" />
<glyph unicode="A" d="M0 0v100q0 1150 1250 1150h900v-1250h-350v250h-1450v-250h-350zM379 500h1421v500h-700q-603 -40 -721 -500z" />
<glyph unicode="B" d="M0 0v1250h2150q0 -444 -333 -625q333 -181 333 -625h-2150zM350 250h1407q-103 250 -457 250h-750v250h750q354 0 457 250h-1407v-750z" />
<glyph unicode="C" d="M0 0v100q0 1150 1250 1150h900v-250h-1050q-750 -50 -750 -750h1800v-250h-2150z" />
<glyph unicode="D" d="M0 0v1250h2150v-100q0 -1150 -1250 -1150h-900zM350 250h700q750 50 750 750h-1450v-750z" />
<glyph unicode="E" d="M0 0v500q0 750 950 750h1200v-250h-1300q-500 0 -500 -500v-250h1800v-250h-2150zM550 500v250h1600v-250h-1600z" />
<glyph unicode="F" d="M0 0v500q0 750 950 750h1200v-250h-1300q-500 0 -500 -500v-500h-350zM550 500v250h1600v-250h-1600z" />
<glyph unicode="G" d="M0 0v100q0 1150 1250 1150h900v-250h-1050q-750 -50 -750 -750h1450v500h350v-750h-2150z" />
<glyph unicode="H" d="M0 0v1250h350v-1250h-350zM500 500v250h1300v500h350v-1250h-350v500h-1300zM850 1300v150h450v-150h-450z" />
<glyph unicode="I" horiz-adv-x="550" d="M0 0v1250h350v-1250h-350z" />
<glyph unicode="J" horiz-adv-x="2050" d="M0 600h350q0 -350 400 -350h750v1000h350v-1250h-1000q-850 0 -850 600zM700 1300v150h450v-150h-450z" />
<glyph unicode="K" d="M0 0v1250h350v-1250h-350zM500 500v250h800q500 0 500 500h350q0 -444 -333 -625q333 -181 333 -625h-350q0 500 -500 500h-800zM850 1300v150h450v-150h-450z" />
<glyph unicode="L" horiz-adv-x="2050" d="M0 0v1250h350v-1000h750q400 0 400 350h350q0 -600 -850 -600h-1000zM700 1300v150h450v-150h-450z" />
<glyph unicode="M" d="M0 0v1250h1200q950 0 950 -750v-500h-350v500q0 500 -500 500h-950v-1000h-350zM900 0v800h350v-800h-350z" />
<glyph unicode="N" d="M0 0v1250h450q1000 0 1350 -550v550h350v-1250h-350q-150 900 -1350 1000h-100v-1000h-350z" />
<glyph unicode="O" d="M0 0v100q0 1150 1250 1150h900v-100q0 -1150 -1250 -1150h-900zM350 250h700q750 50 750 750h-700q-750 -50 -750 -750z" />
<glyph unicode="P" d="M0 0v1250h2150q0 -750 -950 -750h-650v250h750q354 0 457 250h-1407v-1000h-350z" />
<glyph unicode="Q" d="M0 0v100q0 1150 1250 1150h900v-100q0 -696 -458 -971l108 -179h-400l-35 50q-205 -50 -465 -50h-900zM350 250h700q85 6 161 20l-161 230h450l53 -89q247 188 247 589h-700q-750 -50 -750 -750z" />
<glyph unicode="R" d="M0 0v1250h2150q0 -694 -813 -746l413 -504h-400l-409 500h-391v250h750q354 0 457 250h-1407v-1000h-350z" />
<glyph unicode="S" d="M0 0v250h1300q354 0 457 250h-1757q0 750 950 750h1200v-250h-1300q-354 0 -457 -250h1757q0 -750 -950 -750h-1200z" />
<glyph unicode="T" d="M0 1000v250h2150v-250h-900v-1000h-350v1000h-900z" />
<glyph unicode="U" d="M0 750v500h350v-500q0 -500 500 -500h950v1000h350v-1250h-1200q-950 0 -950 750zM850 1300v150h450v-150h-450z" />
<glyph unicode="V" d="M0 0v1250h350v-1000h700q750 50 750 750v250h350v-100q0 -1150 -1250 -1150h-900zM850 1300v150h450v-150h-450z" />
<glyph unicode="W" d="M0 750v500h350v-500q0 -500 500 -500h50v1200h350v-1200h550v1000h350v-1250h-1200q-950 0 -950 750z" />
<glyph unicode="X" d="M0 0q0 444 333 625q-333 181 -333 625h350q0 -500 500 -500h450q500 0 500 500h350q0 -444 -333 -625q333 -181 333 -625h-350q0 500 -500 500h-450q-500 0 -500 -500h-350zM850 1300v150h450v-150h-450z" />
<glyph unicode="Y" d="M0 1000v250h350v-250q0 -500 500 -500h450q500 0 500 500v250h350v-250q0 -730 -900 -749v-251h-350v251q-900 19 -900 749zM850 1300v150h450v-150h-450z" />
<glyph unicode="Z" d="M0 0q0 750 950 750h350q354 0 457 250h-1757v250h2150q0 -750 -950 -750h-350q-354 0 -457 -250h1757v-250h-2150z" />
<glyph unicode="[" horiz-adv-x="1050" d="M0 -250v1750h850v-250h-500v-1250h500v-250h-850z" />
<glyph unicode="\" horiz-adv-x="2050" d="M0 1250h400l1450 -1250h-400z" />
<glyph unicode="]" horiz-adv-x="1050" d="M0 0h500v1250h-500v250h850v-1750h-850v250z" />
<glyph unicode="^" horiz-adv-x="1250" d="M0 1450l400 250h250l400 -250l-250 -150l-250 150h-50l-250 -150z" />
<glyph unicode="_" d="M0 0h2150v-250h-2150v250z" />
<glyph unicode="`" horiz-adv-x="700" d="M0 1550v150h150q350 0 350 -400q-500 0 -500 250z" />
<glyph unicode="a" horiz-adv-x="2050" d="M0 0q0 650 950 650h399q-122 100 -342 100h-1007v250h907q943 0 943 -750v-250h-1850zM425 250h1075q0 82 -13 150h-637q-306 0 -425 -150z" />
<glyph unicode="b" horiz-adv-x="2050" d="M0 0v1250h350v-1000h1150q0 500 -493 500h-457v250h357q943 0 943 -750v-250h-1850z" />
<glyph unicode="c" horiz-adv-x="2050" d="M0 0v250q0 750 943 750h907v-250h-1007q-492 0 -492 -498v-2h1499v-250h-1850z" />
<glyph unicode="d" horiz-adv-x="2050" d="M0 0v250q0 750 943 750h357v-250h-457q-492 0 -492 -498v-2h1149v1000h350v-1250h-1850z" />
<glyph unicode="e" horiz-adv-x="2050" d="M0 0v250q0 750 943 750h907q0 -650 -950 -650h-544q-5 -47 -5 -100h1499v-250h-1850zM451 600h549q306 0 425 150h-582q-270 0 -392 -150z" />
<glyph unicode="f" horiz-adv-x="1800" d="M0 500v250h382q142 500 918 500h300v-250h-400q-354 0 -457 -250h857v-250h-900v-500h-350v500h-350z" />
<glyph unicode="g" horiz-adv-x="2050" d="M0 750v250h1850v-650q0 -750 -950 -750h-700v250h800q274 0 398 150h-448q-950 0 -950 750zM350 750q0 -500 500 -500h644q6 47 6 100v400h-1150z" />
<glyph unicode="h" horiz-adv-x="2050" d="M0 0v1250h350v-250h557q943 0 943 -750v-250h-350v250q0 500 -493 500h-657v-750h-350z" />
<glyph unicode="i" horiz-adv-x="600" d="M-50 1050v150h450v-150h-450zM0 0v1000h350v-1000h-350z" />
<glyph unicode="j" horiz-adv-x="600" d="M-50 1050v150h450v-150h-450zM0 -400v1400h350v-1400h-350z" />
<glyph unicode="k" horiz-adv-x="2050" d="M0 0v1250h350v-750h650q500 0 500 500h350q0 -603 -614 -721l314 -279h-450l-281 250h-469v-250h-350z" />
<glyph unicode="l" horiz-adv-x="550" d="M0 0v1250h350v-1250h-350z" />
<glyph unicode="m" horiz-adv-x="2050" d="M0 0v1000h900q950 0 950 -750v-250h-350v250q0 447 -400 494v-744h-350v750h-400v-750h-350z" />
<glyph unicode="n" horiz-adv-x="2050" d="M0 0v1000h907q943 0 943 -750v-250h-350v250q0 500 -493 500h-657v-750h-350z" />
<glyph unicode="o" horiz-adv-x="2050" d="M0 0v250q0 750 943 750h907v-250q0 -750 -943 -750h-907zM351 250h656q493 0 493 500h-657q-492 0 -492 -498v-2z" />
<glyph unicode="p" horiz-adv-x="2050" d="M0 -400v1400h1850v-250q0 -750 -943 -750h-357v250h457q493 0 493 500h-1150v-1150h-350z" />
<glyph unicode="q" horiz-adv-x="2050" d="M0 750v250h1850v-1400h-350v1150h-1149v-2q0 -498 492 -498h457v-250h-357q-943 0 -943 750z" />
<glyph unicode="r" horiz-adv-x="1839" d="M0 0v1000h907q497 0 732 -209l-239 -191v-1q-122 151 -393 151h-657v-750h-350z" />
<glyph unicode="s" horiz-adv-x="2050" d="M0 0v250h1000q306 0 425 150h-1425q0 600 950 600h900v-250h-1000q-306 0 -425 -100h1425q0 -650 -950 -650h-900z" />
<glyph unicode="t" horiz-adv-x="1250" d="M0 750v250h350v250h350v-250h350v-250h-350v-750h-350v750h-350z" />
<glyph unicode="u" horiz-adv-x="2050" d="M0 750v250h350v-250q0 -500 500 -500h650v750h350v-1000h-900q-950 0 -950 750zM700 1050v150h450v-150h-450z" />
<glyph unicode="v" horiz-adv-x="2050" d="M0 0v1000h350v-750h550q600 50 600 500v250h350v-100q0 -900 -1100 -900h-750zM700 1050v150h450v-150h-450z" />
<glyph unicode="w" horiz-adv-x="2050" d="M0 750v250h350v-250q0 -447 400 -494v744h350v-750h400v750h350v-1000h-900q-950 0 -950 750z" />
<glyph unicode="x" horiz-adv-x="2050" d="M0 0q0 359 290 520q-290 148 -290 480h350q0 -350 500 -350h150q500 0 500 350h350q0 -332 -290 -480q290 -161 290 -520h-350q0 400 -500 400h-150q-500 0 -500 -400h-350zM700 1050v150h450v-150h-450z" />
<glyph unicode="y" horiz-adv-x="2050" d="M0 750v250h350v-250q0 -500 500 -500h644q6 47 6 100v650h350v-650q0 -750 -950 -750h-700v250h800q274 0 398 150h-448q-950 0 -950 750zM700 1050v150h450v-150h-450z" />
<glyph unicode="z" horiz-adv-x="2050" d="M0 0q0 632 900 650h100q306 0 425 100h-1425v250h1850q0 -600 -950 -600h-50q-306 0 -425 -150l1425 -1v-250z" />
<glyph unicode="{" horiz-adv-x="1050" d="M0 500v250q150 0 150 100q0 650 700 650v-250q-350 0 -350 -500q0 -100 -150 -120q150 -30 150 -130q0 -500 350 -500v-250q-700 0 -700 650q0 100 -150 100z" />
<glyph unicode="|" horiz-adv-x="550" d="M0 -400v1900h350v-1900h-350z" />
<glyph unicode="}" horiz-adv-x="1050" d="M0 0q350 0 350 500q0 100 150 130q-150 20 -150 120q0 500 -350 500v250q700 0 700 -650q0 -100 150 -100v-250q-150 0 -150 -100q0 -650 -700 -650v250z" />
<glyph unicode="~" horiz-adv-x="1250" d="M0 1350l150 350l450 -50l50 -100l50 150l350 -50l-150 -350l-400 50l-50 100l-50 -150z" />
<glyph unicode="&#xa1;" horiz-adv-x="550" d="M0 0v750h350v-750h-350zM0 1000v250h350v-250h-350z" />
<glyph unicode="&#xa2;" horiz-adv-x="2050" d="M0 100v250q0 712 850 748v102h350v-100h650v-250h-650v-500h650v-250h-650v-100h-350v100h-850zM351 350h499v500h-7q-492 0 -492 -498v-2z" />
<glyph unicode="&#xa3;" d="M0 0v250h400v250h-400v250h432q142 500 918 500h800v-250h-900q-354 0 -457 -250h407v-250h-450v-250h1400v-250h-2150z" />
<glyph unicode="&#xa4;" d="M0 0q0 444 333 625q-333 181 -333 625h350q0 -343 235 -450q212 325 833 325h257v-250q125 125 125 375h350q0 -444 -333 -625q333 -181 333 -625h-350q0 343 -235 450q-212 -325 -833 -325h-257v250q-125 -125 -125 -375h-350zM826 375h6q493 0 493 500 q-499 0 -499 -500z" />
<glyph unicode="&#xa5;" d="M0 1250h350q0 -500 500 -500h450q500 0 500 500h350q0 -421 -300 -606v-144h-600v-150h600v-250h-600v-100h-350v100h-600v250h600v150h-600v144q-300 185 -300 606zM850 1300v150h450v-150h-450z" />
<glyph unicode="&#xa6;" horiz-adv-x="550" d="M0 -400v900h350v-900h-350zM0 750v750h350v-750h-350z" />
<glyph unicode="&#xa7;" horiz-adv-x="2351" d="M0 500l1 250q0 750 950 750h1200v-250h-1300q-400 0 -500 -300v-200h205q195 375 862 375h257v-250q0 -65 -7 -125h483v-250q0 -750 -950 -750h-1200v250h1300q400 0 500 300v200h-207q-195 -375 -862 -375h-257v250q0 65 7 125h-482zM826 375h6q493 0 493 500 q-499 0 -499 -500z" />
<glyph unicode="&#xa8;" horiz-adv-x="1250" d="M0 1350v250h350v-250h-350zM700 1350v250h350v-250h-350z" />
<glyph unicode="&#xa9;" horiz-adv-x="1700" d="M0 925q0 218 219.5 371.5t530.5 153.5t530.5 -153.5t219.5 -371.5q0 -217 -219.5 -371t-530.5 -154t-530.5 154t-219.5 371zM100 925q0 -128 100 -228q12 553 625 553h344q-178 100 -419 100q-269 0 -459.5 -124.5t-190.5 -300.5zM291 625q190 -125 459 -125t460 125 h-919zM375 750h900v-76q125 108 125 251t-125 251v-51h-525q-375 -25 -375 -375z" />
<glyph unicode="&#xaa;" horiz-adv-x="1700" d="M0 200v1100q0 200 200 200h1100q200 0 200 -200v-1100q0 -200 -200 -200h-1100q-200 0 -200 200zM25 200q1 -175 175 -175h1101q174 0 174 176v1099q0 175 -175 175h-1100q-174 0 -175 -175v-1100z" />
<glyph unicode="&#xab;" horiz-adv-x="2450" d="M0 250q0 750 950 750h100v-250h-200q-354 0 -457 -250h657v-250h-1050zM1200 250q0 750 950 750h100v-250h-200q-354 0 -457 -250h657v-250h-1050z" />
<glyph unicode="&#xac;" horiz-adv-x="1700" d="M0 200v1100q0 200 200 200h1100q200 0 200 -200v-1100q0 -200 -200 -200h-1100q-200 0 -200 200zM25 200q1 -175 175 -175h1101q174 0 174 176v1099q0 175 -175 175h-1100q-174 0 -175 -175v-1100z" />
<glyph unicode="&#xad;" horiz-adv-x="1750" d="M0 500v250h1550v-250h-1550z" />
<glyph unicode="&#xae;" horiz-adv-x="1700" d="M0 925q0 218 219.5 371.5t530.5 153.5t530.5 -153.5t219.5 -371.5q0 -217 -219.5 -371t-530.5 -154t-530.5 154t-219.5 371zM100 925q0 -143 125 -251v502q-125 -108 -125 -251zM291 625q190 -125 459 -125t459.5 124.5t190.5 300.5q0 132 -108 236q-48 -262 -398 -284 l206 -252h-200l-204 250h-196v125h375q177 0 229 125h-704v-500h-109zM331 1250h838q-178 100 -419 100t-419 -100z" />
<glyph unicode="&#xaf;" horiz-adv-x="1700" d="M0 200v1100q0 200 200 200h1100q200 0 200 -200v-1100q0 -200 -200 -200h-1100q-200 0 -200 200zM25 200q1 -175 175 -175h1101q174 0 174 176v1099q0 175 -175 175h-1100q-174 0 -175 -175v-1100z" />
<glyph unicode="&#xb0;" horiz-adv-x="816" d="M60 1164q0 116 81.5 197t197.5 81q115 0 196 -81.5t81 -196.5q0 -114 -82 -196t-197 -82q-117 0 -197 81t-80 197zM130 1163q0 -87 61 -147t148 -60t147 60t60 147t-60.5 148t-146.5 61t-147.5 -61t-61.5 -148z" />
<glyph unicode="&#xb1;" horiz-adv-x="1700" d="M0 200v1100q0 200 200 200h1100q200 0 200 -200v-1100q0 -200 -200 -200h-1100q-200 0 -200 200zM25 200q1 -175 175 -175h1101q174 0 174 176v1099q0 175 -175 175h-1100q-174 0 -175 -175v-1100z" />
<glyph unicode="&#xb2;" horiz-adv-x="1700" d="M0 200v1100q0 200 200 200h1100q200 0 200 -200v-1100q0 -200 -200 -200h-1100q-200 0 -200 200zM25 200q1 -175 175 -175h1101q174 0 174 176v1099q0 175 -175 175h-1100q-174 0 -175 -175v-1100z" />
<glyph unicode="&#xb3;" horiz-adv-x="1700" d="M0 200v1100q0 200 200 200h1100q200 0 200 -200v-1100q0 -200 -200 -200h-1100q-200 0 -200 200zM25 200q1 -175 175 -175h1101q174 0 174 176v1099q0 175 -175 175h-1100q-174 0 -175 -175v-1100z" />
<glyph unicode="&#xb4;" horiz-adv-x="700" d="M0 1300q0 400 350 400h150v-150q0 -250 -500 -250z" />
<glyph unicode="&#xb5;" horiz-adv-x="2050" d="M0 -400v1400h350v-250q0 -500 500 -500h650v750h350v-1000h-900q-373 0 -600 116v-516h-350zM700 1050v150h450v-150h-450z" />
<glyph unicode="&#xb6;" horiz-adv-x="1129" d="M93 1086q0 157 107.5 253t285.5 96h443v-70h-127v-1365h-82v1365h-166v-1365h-84v738q-174 8 -275.5 102.5t-101.5 245.5z" />
<glyph unicode="&#xb7;" horiz-adv-x="550" d="M0 500v250h350v-250h-350z" />
<glyph unicode="&#xb8;" horiz-adv-x="900" d="M0 -150h100q251 0 251 150h349q0 -400 -700 -400v250z" />
<glyph unicode="&#xb9;" horiz-adv-x="1700" d="M0 200v1100q0 200 200 200h1100q200 0 200 -200v-1100q0 -200 -200 -200h-1100q-200 0 -200 200zM25 200q1 -175 175 -175h1101q174 0 174 176v1099q0 175 -175 175h-1100q-174 0 -175 -175v-1100z" />
<glyph unicode="&#xba;" horiz-adv-x="1700" d="M0 200v1100q0 200 200 200h1100q200 0 200 -200v-1100q0 -200 -200 -200h-1100q-200 0 -200 200zM25 200q1 -175 175 -175h1101q174 0 174 176v1099q0 175 -175 175h-1100q-174 0 -175 -175v-1100z" />
<glyph unicode="&#xbb;" horiz-adv-x="2450" d="M0 250v250h657q-103 250 -457 250h-200v250h100q950 0 950 -750h-1050zM1200 250v250h657q-103 250 -457 250h-200v250h100q950 0 950 -750h-1050z" />
<glyph unicode="&#xbc;" horiz-adv-x="1700" d="M0 200v1100q0 200 200 200h1100q200 0 200 -200v-1100q0 -200 -200 -200h-1100q-200 0 -200 200zM25 200q1 -175 175 -175h1101q174 0 174 176v1099q0 175 -175 175h-1100q-174 0 -175 -175v-1100z" />
<glyph unicode="&#xbd;" horiz-adv-x="1700" d="M0 200v1100q0 200 200 200h1100q200 0 200 -200v-1100q0 -200 -200 -200h-1100q-200 0 -200 200zM25 200q1 -175 175 -175h1101q174 0 174 176v1099q0 175 -175 175h-1100q-174 0 -175 -175v-1100z" />
<glyph unicode="&#xbe;" horiz-adv-x="1700" d="M0 200v1100q0 200 200 200h1100q200 0 200 -200v-1100q0 -200 -200 -200h-1100q-200 0 -200 200zM25 200q1 -175 175 -175h1101q174 0 174 176v1099q0 175 -175 175h-1100q-174 0 -175 -175v-1100z" />
<glyph unicode="&#xbf;" d="M0 750h1550v-250h-1157q103 -250 457 -250h1300v-250h-1200q-950 0 -950 750zM1200 1000v250h350v-250h-350z" />
<glyph unicode="&#xc0;" d="M0 0v100q0 1150 1250 1150h900v-1250h-350v250h-1450v-250h-350zM379 500h1421v500h-700q-603 -40 -721 -500zM850 1550v150h150q350 0 350 -400q-500 0 -500 250z" />
<glyph unicode="&#xc1;" d="M0 0v100q0 1150 1250 1150h900v-1250h-350v250h-1450v-250h-350zM379 500h1421v500h-700q-603 -40 -721 -500zM900 1300q0 400 350 400h150v-150q0 -250 -500 -250z" />
<glyph unicode="&#xc2;" d="M0 0v100q0 1150 1250 1150h900v-1250h-350v250h-1450v-250h-350zM379 500h1421v500h-700q-603 -40 -721 -500zM600 1450l400 250h250l400 -250l-250 -150l-250 150h-50l-250 -150z" />
<glyph unicode="&#xc3;" d="M0 0v100q0 1150 1250 1150h900v-1250h-350v250h-1450v-250h-350zM379 500h1421v500h-700q-603 -40 -721 -500zM600 1350l150 350l450 -50l50 -100l50 150l350 -50l-150 -350l-400 50l-50 100l-50 -150z" />
<glyph unicode="&#xc4;" d="M0 0v100q0 1150 1250 1150h900v-1250h-350v250h-1450v-250h-350zM379 500h1421v500h-700q-603 -40 -721 -500zM600 1350v250h350v-250h-350zM1300 1350v250h350v-250h-350z" />
<glyph unicode="&#xc5;" d="M0 0v100q0 1150 1250 1150h900v-1250h-350v250h-1450v-250h-350zM379 500h1421v500h-700q-603 -40 -721 -500zM950 1350v250h350v-250h-350z" />
<glyph unicode="&#xc6;" horiz-adv-x="2900" d="M0 0v100q0 1150 1250 1150h250v-116q227 116 600 116h600v-250h-700q-500 0 -500 -500v-250h1200v-250h-1550v250h-800v-250h-350zM379 500h771v500h-50q-603 -40 -721 -500zM1700 500v250h1000v-250h-1000z" />
<glyph unicode="&#xc7;" d="M0 0v100q0 1150 1250 1150h900v-250h-1050q-750 -50 -750 -750h1800v-250h-650q0 -400 -700 -400v250h100q251 0 251 150h-1151z" />
<glyph unicode="&#xc8;" d="M0 0v500q0 750 950 750h1200v-250h-1300q-500 0 -500 -500v-250h1800v-250h-2150zM550 500v250h1600v-250h-1600zM850 1550v150h150q350 0 350 -400q-500 0 -500 250z" />
<glyph unicode="&#xc9;" d="M0 0v500q0 750 950 750h1200v-250h-1300q-500 0 -500 -500v-250h1800v-250h-2150zM550 500v250h1600v-250h-1600zM900 1300q0 400 350 400h150v-150q0 -250 -500 -250z" />
<glyph unicode="&#xca;" d="M0 0v500q0 750 950 750h1200v-250h-1300q-500 0 -500 -500v-250h1800v-250h-2150zM550 500v250h1600v-250h-1600zM600 1450l400 250h250l400 -250l-250 -150l-250 150h-50l-250 -150z" />
<glyph unicode="&#xcb;" d="M0 0v500q0 750 950 750h1200v-250h-1300q-500 0 -500 -500v-250h1800v-250h-2150zM550 500v250h1600v-250h-1600zM600 1350v250h350v-250h-350zM1300 1350v250h350v-250h-350z" />
<glyph unicode="&#xcc;" horiz-adv-x="620" d="M-80 1550v150h150q350 0 350 -400q-500 0 -500 250zM0 0v1250h350v-1250h-350z" />
<glyph unicode="&#xcd;" horiz-adv-x="630" d="M-70 1300q0 400 350 400h150v-150q0 -250 -500 -250zM0 0v1250h350v-1250h-350z" />
<glyph unicode="&#xce;" horiz-adv-x="900" d="M-350 1450l400 250h250l400 -250l-250 -150l-250 150h-50l-250 -150zM0 0v1250h350v-1250h-350z" />
<glyph unicode="&#xcf;" horiz-adv-x="900" d="M-350 1350v250h350v-250h-350zM0 0v1250h350v-1250h-350zM350 1350v250h350v-250h-350z" />
<glyph unicode="&#xd0;" d="M0 500v250h350v500h1800v-100q0 -1150 -1250 -1150h-550v500h-350zM700 250h350q750 50 750 750h-1100v-250h350v-250h-350v-250z" />
<glyph unicode="&#xd1;" d="M0 0v1250h450q1000 0 1350 -550v550h350v-1250h-350q-150 900 -1350 1000h-100v-1000h-350zM600 1350l150 350l450 -50l50 -100l50 150l350 -50l-150 -350l-400 50l-50 100l-50 -150z" />
<glyph unicode="&#xd2;" d="M0 0v100q0 1150 1250 1150h900v-100q0 -1150 -1250 -1150h-900zM350 250h700q750 50 750 750h-700q-750 -50 -750 -750zM850 1550v150h150q350 0 350 -400q-500 0 -500 250z" />
<glyph unicode="&#xd3;" d="M0 0v100q0 1150 1250 1150h900v-100q0 -1150 -1250 -1150h-900zM350 250h700q750 50 750 750h-700q-750 -50 -750 -750zM900 1300q0 400 350 400h150v-150q0 -250 -500 -250z" />
<glyph unicode="&#xd4;" d="M0 0v100q0 1150 1250 1150h900v-100q0 -1150 -1250 -1150h-900zM350 250h700q750 50 750 750h-700q-750 -50 -750 -750zM600 1450l400 250h250l400 -250l-250 -150l-250 150h-50l-250 -150z" />
<glyph unicode="&#xd5;" d="M0 0v100q0 1150 1250 1150h900v-100q0 -1150 -1250 -1150h-900zM350 250h700q750 50 750 750h-700q-750 -50 -750 -750zM600 1350l150 350l450 -50l50 -100l50 150l350 -50l-150 -350l-400 50l-50 100l-50 -150z" />
<glyph unicode="&#xd6;" d="M0 0v100q0 1150 1250 1150h900v-100q0 -1150 -1250 -1150h-900zM350 250h700q750 50 750 750h-700q-750 -50 -750 -750zM600 1350v250h350v-250h-350zM1300 1350v250h350v-250h-350z" />
<glyph unicode="&#xd7;" horiz-adv-x="2050" d="M0 200q0 359 290 520q-290 148 -290 480h350q0 -350 500 -350h150q500 0 500 350h350q0 -332 -290 -480q290 -161 290 -520h-350q0 400 -500 400h-150q-500 0 -500 -400h-350z" />
<glyph unicode="&#xd8;" d="M0 0v100q0 1150 1250 1150h900v-100q0 -1150 -1250 -1150h-900zM350 250h90l870 750h-210q-750 -50 -750 -750zM840 250h210q750 50 750 750h-90z" />
<glyph unicode="&#xd9;" d="M0 750v500h350v-500q0 -500 500 -500h950v1000h350v-1250h-1200q-950 0 -950 750zM850 1550v150h150q350 0 350 -400q-500 0 -500 250z" />
<glyph unicode="&#xda;" d="M0 750v500h350v-500q0 -500 500 -500h950v1000h350v-1250h-1200q-950 0 -950 750zM900 1300q0 400 350 400h150v-150q0 -250 -500 -250z" />
<glyph unicode="&#xdb;" d="M0 750v500h350v-500q0 -500 500 -500h950v1000h350v-1250h-1200q-950 0 -950 750zM600 1450l400 250h250l400 -250l-250 -150l-250 150h-50l-250 -150z" />
<glyph unicode="&#xdc;" d="M0 750v500h350v-500q0 -500 500 -500h950v1000h350v-1250h-1200q-950 0 -950 750zM600 1350v250h350v-250h-350zM1300 1350v250h350v-250h-350z" />
<glyph unicode="&#xdd;" d="M0 1000v250h350v-250q0 -500 500 -500h450q500 0 500 500v250h350v-250q0 -730 -900 -749v-251h-350v251q-900 19 -900 749zM900 1300q0 400 350 400h150v-150q0 -250 -500 -250z" />
<glyph unicode="&#xde;" d="M0 0v1250h350v-250h1800q0 -750 -950 -750h-650v250h750q354 0 457 250h-1407v-750h-350z" />
<glyph unicode="&#xdf;" d="M0 0v1250h2150q0 -444 -333 -625q333 -181 333 -625h-1150v250h757q-103 250 -457 250h-300v250h300q354 0 457 250h-1407v-1000h-350z" />
<glyph unicode="&#xe0;" horiz-adv-x="2050" d="M0 0q0 650 950 650h399q-122 100 -342 100h-1007v250h907q943 0 943 -750v-250h-1850zM425 250h1075q0 82 -13 150h-637q-306 0 -425 -150zM700 1350v150h150q350 0 350 -400q-500 0 -500 250z" />
<glyph unicode="&#xe1;" horiz-adv-x="2050" d="M0 0q0 650 950 650h399q-122 100 -342 100h-1007v250h907q943 0 943 -750v-250h-1850zM425 250h1075q0 82 -13 150h-637q-306 0 -425 -150zM700 1100q0 400 350 400h150v-150q0 -250 -500 -250z" />
<glyph unicode="&#xe2;" horiz-adv-x="2050" d="M0 0q0 650 950 650h399q-122 100 -342 100h-1007v250h907q943 0 943 -750v-250h-1850zM400 1250l400 250h250l400 -250l-250 -150l-250 150h-50l-250 -150zM425 250h1075q0 82 -13 150h-637q-306 0 -425 -150z" />
<glyph unicode="&#xe3;" horiz-adv-x="2050" d="M0 0q0 650 950 650h399q-122 100 -342 100h-1007v250h907q943 0 943 -750v-250h-1850zM400 1150l150 350l450 -50l50 -100l50 150l350 -50l-150 -350l-400 50l-50 100l-50 -150zM425 250h1075q0 82 -13 150h-637q-306 0 -425 -150z" />
<glyph unicode="&#xe4;" horiz-adv-x="2050" d="M0 0q0 650 950 650h399q-122 100 -342 100h-1007v250h907q943 0 943 -750v-250h-1850zM400 1100v250h350v-250h-350zM425 250h1075q0 82 -13 150h-637q-306 0 -425 -150zM1100 1100v250h350v-250h-350z" />
<glyph unicode="&#xe5;" horiz-adv-x="2050" d="M0 0q0 650 950 650h399q-122 100 -342 100h-1007v250h907q943 0 943 -750v-250h-1850zM425 250h1075q0 82 -13 150h-637q-306 0 -425 -150zM750 1100v250h350v-250h-350z" />
<glyph unicode="&#xe6;" horiz-adv-x="2407" d="M0 0q0 650 749 650q-99 100 -342 100h-407v250h307q537 0 768 -243q231 243 625 243h507q0 -650 -807 -650h-144q-5 -47 -5 -100h956v-250h-2207zM425 250h475q0 82 -13 150h-237q-200 0 -225 -150zM1351 600h149q200 0 282 150h-182q-150 0 -249 -150z" />
<glyph unicode="&#xe7;" horiz-adv-x="2050" d="M0 0v250q0 750 943 750h907v-250h-1007q-492 0 -492 -498v-2h1499v-250h-500q0 -400 -700 -400v250h100q251 0 251 150h-1001z" />
<glyph unicode="&#xe8;" horiz-adv-x="2050" d="M0 0v250q0 750 943 750h907q0 -650 -950 -650h-544q-5 -47 -5 -100h1499v-250h-1850zM451 600h549q306 0 425 150h-582q-270 0 -392 -150zM700 1350v150h150q350 0 350 -400q-500 0 -500 250z" />
<glyph unicode="&#xe9;" horiz-adv-x="2050" d="M0 0v250q0 750 943 750h907q0 -650 -950 -650h-544q-5 -47 -5 -100h1499v-250h-1850zM451 600h549q306 0 425 150h-582q-270 0 -392 -150zM700 1100q0 400 350 400h150v-150q0 -250 -500 -250z" />
<glyph unicode="&#xea;" horiz-adv-x="2050" d="M0 0v250q0 750 943 750h907q0 -650 -950 -650h-544q-5 -47 -5 -100h1499v-250h-1850zM400 1250l400 250h250l400 -250l-250 -150l-250 150h-50l-250 -150zM451 600h549q306 0 425 150h-582q-270 0 -392 -150z" />
<glyph unicode="&#xeb;" horiz-adv-x="2050" d="M0 0v250q0 750 943 750h907q0 -650 -950 -650h-544q-5 -47 -5 -100h1499v-250h-1850zM400 1100v250h350v-250h-350zM451 600h549q306 0 425 150h-582q-270 0 -392 -150zM1100 1100v250h350v-250h-350z" />
<glyph unicode="&#xec;" horiz-adv-x="600" d="M-100 1350v150h150q350 0 350 -400q-500 0 -500 250zM0 0v1000h350v-1000h-350z" />
<glyph unicode="&#xed;" horiz-adv-x="650" d="M-50 1100q0 400 350 400h150v-150q0 -250 -500 -250zM0 0v1000h350v-1000h-350z" />
<glyph unicode="&#xee;" horiz-adv-x="900" d="M-350 1250l400 250h250l400 -250l-250 -150l-250 150h-50l-250 -150zM0 0v1000h350v-1000h-350z" />
<glyph unicode="&#xef;" horiz-adv-x="900" d="M-350 1100v250h350v-250h-350zM0 0v1000h350v-1000h-350zM350 1100v250h350v-250h-350z" />
<glyph unicode="&#xf0;" horiz-adv-x="2050" d="M0 0v250q0 750 943 750h207v250h350v-250h350v-250h-350v-750h-1500zM351 250h799v500h-307q-492 0 -492 -498v-2z" />
<glyph unicode="&#xf1;" horiz-adv-x="2050" d="M0 0v1000h907q943 0 943 -750v-250h-350v250q0 500 -493 500h-657v-750h-350zM400 1150l150 350l450 -50l50 -100l50 150l350 -50l-150 -350l-400 50l-50 100l-50 -150z" />
<glyph unicode="&#xf2;" horiz-adv-x="2050" d="M0 0v250q0 750 943 750h907v-250q0 -750 -943 -750h-907zM351 250h656q493 0 493 500h-657q-492 0 -492 -498v-2zM700 1350v150h150q350 0 350 -400q-500 0 -500 250z" />
<glyph unicode="&#xf3;" horiz-adv-x="2050" d="M0 0v250q0 750 943 750h907v-250q0 -750 -943 -750h-907zM351 250h656q493 0 493 500h-657q-492 0 -492 -498v-2zM700 1100q0 400 350 400h150v-150q0 -250 -500 -250z" />
<glyph unicode="&#xf4;" horiz-adv-x="2050" d="M0 0v250q0 750 943 750h907v-250q0 -750 -943 -750h-907zM351 250h656q493 0 493 500h-657q-492 0 -492 -498v-2zM400 1250l400 250h250l400 -250l-250 -150l-250 150h-50l-250 -150z" />
<glyph unicode="&#xf5;" horiz-adv-x="2050" d="M0 0v250q0 750 943 750h907v-250q0 -750 -943 -750h-907zM351 250h656q493 0 493 500h-657q-492 0 -492 -498v-2zM400 1150l150 350l450 -50l50 -100l50 150l350 -50l-150 -350l-400 50l-50 100l-50 -150z" />
<glyph unicode="&#xf6;" horiz-adv-x="2050" d="M0 0v250q0 750 943 750h907v-250q0 -750 -943 -750h-907zM351 250h656q493 0 493 500h-657q-492 0 -492 -498v-2zM400 1100v250h350v-250h-350zM1100 1100v250h350v-250h-350z" />
<glyph unicode="&#xf7;" horiz-adv-x="1750" d="M0 500v250h1550v-250h-1550zM600 50v250h350v-250h-350zM600 950v250h350v-250h-350z" />
<glyph unicode="&#xf8;" horiz-adv-x="2050" d="M0 0v250q0 750 943 750h907v-250q0 -750 -943 -750h-907zM351 250h49l600 500h-157q-492 0 -492 -498v-2zM800 250h207q493 0 493 500h-100z" />
<glyph unicode="&#xf9;" horiz-adv-x="2050" d="M0 750v250h350v-250q0 -500 500 -500h650v750h350v-1000h-900q-950 0 -950 750zM700 1350v150h150q350 0 350 -400q-500 0 -500 250z" />
<glyph unicode="&#xfa;" horiz-adv-x="2050" d="M0 750v250h350v-250q0 -500 500 -500h650v750h350v-1000h-900q-950 0 -950 750zM700 1100q0 400 350 400h150v-150q0 -250 -500 -250z" />
<glyph unicode="&#xfb;" horiz-adv-x="2050" d="M0 750v250h350v-250q0 -500 500 -500h650v750h350v-1000h-900q-950 0 -950 750zM400 1250l400 250h250l400 -250l-250 -150l-250 150h-50l-250 -150z" />
<glyph unicode="&#xfc;" horiz-adv-x="2050" d="M0 750v250h350v-250q0 -500 500 -500h650v750h350v-1000h-900q-950 0 -950 750zM400 1100v250h350v-250h-350zM1100 1100v250h350v-250h-350z" />
<glyph unicode="&#xfd;" horiz-adv-x="2050" d="M0 750v250h350v-250q0 -500 500 -500h644q6 47 6 100v650h350v-650q0 -750 -950 -750h-700v250h800q274 0 398 150h-448q-950 0 -950 750zM700 1100q0 400 350 400h150v-150q0 -250 -500 -250z" />
<glyph unicode="&#xfe;" horiz-adv-x="2050" d="M0 -400v1650h350v-250h1500v-250q0 -750 -943 -750h-357v250h457q493 0 493 500h-1150v-1150h-350z" />
<glyph unicode="&#xff;" horiz-adv-x="2050" d="M0 750v250h350v-250q0 -500 500 -500h644q6 47 6 100v650h350v-650q0 -750 -950 -750h-700v250h800q274 0 398 150h-448q-950 0 -950 750zM400 1100v250h350v-250h-350zM1100 1100v250h350v-250h-350z" />
<glyph unicode="&#x2c6;" horiz-adv-x="1250" d="M0 1450l400 250h250l400 -250l-250 -150l-250 150h-50l-250 -150z" />
<glyph unicode="&#x2dc;" horiz-adv-x="1250" d="M0 1350l150 350l450 -50l50 -100l50 150l350 -50l-150 -350l-400 50l-50 100l-50 -150z" />
<glyph unicode="&#x2000;" horiz-adv-x="875" />
<glyph unicode="&#x2001;" horiz-adv-x="1750" />
<glyph unicode="&#x2002;" horiz-adv-x="875" />
<glyph unicode="&#x2003;" horiz-adv-x="1750" />
<glyph unicode="&#x2004;" horiz-adv-x="583" />
<glyph unicode="&#x2005;" horiz-adv-x="437" />
<glyph unicode="&#x2006;" horiz-adv-x="291" />
<glyph unicode="&#x2007;" horiz-adv-x="291" />
<glyph unicode="&#x2008;" horiz-adv-x="218" />
<glyph unicode="&#x2009;" horiz-adv-x="350" />
<glyph unicode="&#x200a;" horiz-adv-x="97" />
<glyph unicode="&#x2010;" horiz-adv-x="1750" d="M0 500v250h1550v-250h-1550z" />
<glyph unicode="&#x2011;" horiz-adv-x="1750" d="M0 500v250h1550v-250h-1550z" />
<glyph unicode="&#x2012;" horiz-adv-x="1750" d="M0 500v250h1550v-250h-1550z" />
<glyph unicode="&#x2013;" horiz-adv-x="1750" d="M0 500v250h1550v-250h-1550z" />
<glyph unicode="&#x2014;" horiz-adv-x="1750" d="M0 500v250h1550v-250h-1550z" />
<glyph unicode="&#x2018;" horiz-adv-x="550" d="M0 1300v100h350v-400q-350 0 -350 300z" />
<glyph unicode="&#x2019;" horiz-adv-x="550" d="M0 1000v400h350v-100q0 -300 -350 -300z" />
<glyph unicode="&#x201a;" horiz-adv-x="550" d="M0 200h350v-100q0 -300 -350 -300v400z" />
<glyph unicode="&#x201c;" horiz-adv-x="1100" d="M0 1300v100h350v-400q-350 0 -350 300zM550 1300v100h350v-400q-350 0 -350 300z" />
<glyph unicode="&#x201d;" horiz-adv-x="1100" d="M0 1000v400h350v-100q0 -300 -350 -300zM550 1000v400h350v-100q0 -300 -350 -300z" />
<glyph unicode="&#x201e;" horiz-adv-x="1100" d="M0 200h350v-100q0 -300 -350 -300v400zM550 200h350v-100q0 -300 -350 -300v400z" />
<glyph unicode="&#x2022;" horiz-adv-x="1008" d="M216 718q0 123 87 209t210 86q122 0 208.5 -86.5t86.5 -208.5t-87.5 -209.5t-209.5 -87.5q-123 0 -209 87t-86 210z" />
<glyph unicode="&#x2026;" horiz-adv-x="1550" d="M0 0v250h350v-250h-350zM500 0v250h350v-250h-350zM1000 0v250h350v-250h-350z" />
<glyph unicode="&#x202f;" horiz-adv-x="350" />
<glyph unicode="&#x2039;" horiz-adv-x="1800" d="M0 250q0 750 950 750h650v-250h-750q-354 0 -457 -250h1207v-250h-1600z" />
<glyph unicode="&#x203a;" horiz-adv-x="1800" d="M0 250v250h1207q-103 250 -457 250h-750v250h650q950 0 950 -750h-1600z" />
<glyph unicode="&#x205f;" horiz-adv-x="437" />
<glyph unicode="&#x20ac;" d="M0 350v250h377q9 26 19 50h-396v250h551q309 350 999 350h600v-250h-750q-242 -16 -406 -100h406v-250h-664q-13 -24 -23 -50h687v-250h-746q-4 -48 -4 -100h1500v-250h-1850v100q0 133 17 250h-317z" />
<glyph unicode="&#x2122;" horiz-adv-x="2450" d="M0 1125v125h1075v-125h-450v-500h-175v500h-450zM1175 625v625h600q475 0 475 -375v-250h-175v250q0 250 -250 250h-475v-500h-175zM1625 625v400h175v-400h-175z" />
<glyph unicode="&#xe000;" horiz-adv-x="1200" d="M0 0v1200h1200v-1200h-1200z" />
</font>
</defs>
</svg>
